PathFileType	4	(X/Y/Z)	C:\Users\°ÂÌØÂü\Desktop\20210112\bx_n_0_902-Unnamed.trc
DataRate	CameraRate	NumFrames	NumMarkers	Units	OrigDataRate	OrigDataStartFrame	OrigNumFrames
50.00	50.00	       7	0	mm	50.00	261	       416
Frame#	Time	
		

261	5.200	-63.50196	117.89194	1072.62695	-823.64478	250.34999	564.17090	-357.82339	276.05521	1016.61346	-750.22021	215.12660	790.78644	-749.93402	-5.71514	799.91022	-348.55142	-75.11139	1001.46094	-833.76642	279.62042	730.26392	-676.96924	52.52527	162.32843	-752.65948	14.80820	522.99371	-847.75861	258.48001	620.65924				-764.97998	204.12813	534.98285	-843.51630	264.46204	483.96512	-517.65491	-73.09325	143.41922	-550.24768	-20.30542	163.03799	-796.84375	32.61347	172.13033	-797.32782	70.77901	563.14148	-601.55267	30.92886	165.76630	-730.95313	64.92039	219.17967	-798.29639	184.74106	181.14436	-769.23730	230.24527	202.30971	-590.34875	206.67680	173.25420	-882.61768	296.11588	144.70735	-553.92023	240.67865	165.74498	-651.74030	290.75702	157.06339	-614.54077	296.98166	158.57417	-528.22119	303.96967	146.31238	-796.23157	143.13301	566.74274	-835.76971	-77.59048	861.44604	-830.55249	-53.34523	473.66898	-764.17834	-24.95238	202.82755	-875.87097	-78.64214	141.18979				-828.33710	-72.53719	744.26904	-811.14935	-40.23224	606.30896	-808.87598	-37.86681	559.96027	-723.02216	154.79100	221.66609	-677.06915	168.55046	161.30374	-605.05096	-70.63002	158.23033	-646.77515	-66.00130	162.61584																-858.52118	285.40881	865.89014				-898.95404	85.87119	1109.60498	
262	5.220	-63.58421	117.54228	1075.48767	-823.73358	250.20476	564.55914	-357.72968	275.85117	1018.57532				-749.47784	-6.15331	800.01111	-348.40887	-75.46719	1003.85156	-833.87585	279.33575	730.33179	-677.25360	52.09231	161.94290	-752.62097	14.58322	522.76471	-848.08734	257.68277	620.45197				-764.99072	203.73372	534.84235	-843.39111	264.16425	483.83865	-517.81036	-73.15976	143.30862	-550.29993	-20.40474	163.05405	-796.76715	32.57047	172.24020	-797.14789	70.53227	563.14655	-601.50452	30.83765	165.76471	-731.05682	64.93740	219.03307	-798.26483	184.76213	181.14600	-769.28174	230.25267	202.27750	-590.51477	206.74527	173.25125	-882.66425	296.18982	144.71384	-554.12292	240.76512	165.50969	-651.72632	290.44394	156.80048	-614.68408	296.96976	158.54565	-527.99402	303.86499	146.68425	-796.13898	143.03119	566.64587	-835.70020	-77.73040	861.47760	-830.34302	-53.61738	473.47662	-763.76129	-25.05885	202.78461	-875.86578	-78.57480	141.12534				-827.74188	-72.68922	744.33154	-810.91919	-40.13826	606.08069	-808.80768	-38.57534	560.22931	-723.08936	154.52328	221.74199	-677.06915	168.55046	161.30374	-605.00580	-70.69944	158.28102	-646.86798	-66.00855	162.52577																-858.00769	285.14523	866.62122				-899.00348	85.48140	1109.52332	
263	5.240	-63.55906	117.33034	1078.18591	-823.57837	250.14388	564.23895	-358.21317	275.15567	1019.98157				-749.02960	-6.27079	800.00775	-348.22028	-75.69769	1005.71674	-833.81604	279.13428	730.47473	-677.10797	52.07336	161.51178	-752.61438	14.29707	522.85699	-848.23431	257.47485	620.57764				-765.03021	203.66716	534.86426	-843.62427	264.09454	483.96796	-517.72107	-73.11694	143.33714	-550.19696	-20.29062	163.12076	-796.81482	32.50188	172.24011	-797.10553	69.99593	563.05499	-601.57843	31.07357	165.66583	-730.95313	64.92039	219.17967	-798.18945	184.31104	180.96233	-769.38324	230.17928	202.48094	-590.43701	206.69632	173.27330	-882.56281	296.07834	144.74361	-554.10297	240.62708	165.54518	-651.62280	290.55392	156.92575	-614.81946	296.93469	158.53418	-528.05621	303.99036	146.51204	-795.97620	142.87720	566.75891	-835.42657	-77.83095	861.50641	-830.28705	-53.95153	473.53433	-763.92120	-24.83858	202.71355	-875.94281	-78.74004	141.14670				-827.44702	-73.07157	744.55048	-810.63245	-40.31976	605.89496	-808.71552	-38.73423	560.13232	-723.06793	154.48985	221.74875	-677.10352	168.48921	161.22311	-604.86334	-70.57664	158.30122	-646.79810	-65.99769	162.42633																-857.84723	284.49954	866.51617				-899.12543	85.15923	1109.42371	
264	5.260	-63.30710	116.73322	1081.41931	-823.70044	250.11893	564.36694	-357.52432	275.23917	1022.81366	-750.47186	213.17189	790.46686	-748.56738	-6.44222	800.42822	-348.15829	-75.99953	1008.53595	-833.63837	278.62695	730.53210	-677.13232	51.92031	161.64442	-752.43524	13.98377	522.88873	-848.18469	257.34467	620.68048				-765.03021	203.66716	534.86426	-843.93329	263.86624	484.18451	-517.82050	-73.17213	143.31384	-550.16895	-20.43934	163.02986	-796.65607	32.35810	172.33383	-797.21039	69.92054	562.96783	-601.52838	31.05200	165.80930	-730.95313	64.92039	219.17967	-798.41309	184.55035	181.09138	-769.28339	230.17828	202.34843	-590.46637	206.77318	173.17633	-882.55798	296.00952	144.74338	-554.14862	240.55717	165.56905	-651.58673	290.48035	157.01765	-614.81946	296.93469	158.53418	-528.02002	303.83646	146.58932	-795.89117	142.53719	566.42029	-834.88300	-78.02120	861.64862	-830.37891	-53.92902	473.37051	-763.91754	-24.94592	202.65231	-875.89813	-78.59131	141.24451				-827.47247	-73.26728	744.44940	-810.61768	-40.63205	605.86041	-808.61584	-38.80767	560.19769	-722.99243	154.52663	221.85907	-677.08942	168.56261	161.28291	-604.98059	-70.64776	158.27528	-646.80963	-66.10197	162.52393																-857.58032	283.97104	866.38330				-899.36542	84.79720	1109.53931	
265	5.280	-63.38607	116.80327	1084.89661	-823.71515	250.07045	564.58185	-357.41351	274.87793	1025.39575	-749.88818	213.78996	790.71545	-748.78326	-6.55097	800.12817	-347.76791	-76.37122	1011.01825	-833.35394	277.87241	730.52411	-676.99091	52.64085	162.19119	-752.35870	13.91463	522.84155	-847.90326	256.99167	620.69824				-765.02985	203.41150	534.84680	-843.88342	263.80615	484.17221	-517.74884	-73.22620	143.20737	-550.28723	-20.38858	163.07942	-796.85944	32.54215	172.20630	-796.92572	69.80874	563.02734	-601.50751	30.98150	165.96353	-730.86169	64.81458	219.31044	-798.25220	184.38474	181.07536	-769.32965	229.89769	202.42714	-590.34875	206.67680	173.25420	-882.61035	296.01071	144.57469	-554.17609	240.70958	165.69812	-651.71082	290.68494	156.91397	-614.81946	296.93469	158.53418	-528.13043	303.76566	146.44887	-795.69904	142.05498	566.72198	-834.41223	-78.36486	861.71002	-830.13470	-54.46000	473.73010	-764.12604	-25.00832	202.78537	-875.97003	-78.68922	141.20143				-827.21967	-73.59517	744.64063	-810.47046	-40.82902	605.91748	-808.36523	-38.90326	559.89795	-722.93982	154.63573	221.63884	-676.91351	168.56332	161.27380	-604.79034	-70.57173	158.05646	-646.70062	-66.05788	162.49304																-857.46393	283.21042	865.93164				-899.45203	84.41269	1109.33606	
266	5.300	-63.35160	116.38698	1089.06775	-823.49792	250.01022	564.68335	-357.35876	275.03317	1028.34375	-749.80817	212.94138	790.41895	-748.55078	-6.76802	800.34766	-347.58835	-76.89098	1013.55908	-833.03564	277.61032	730.56006	-677.08636	52.59298	162.47504	-752.29968	13.84379	522.83459	-847.93665	257.03250	621.08826				-764.81342	203.41318	535.15332	-843.77606	263.63452	484.25394	-517.65997	-73.17472	143.43272	-550.20764	-20.36866	163.01874	-796.75293	32.52261	172.13570	-796.64105	69.61171	562.95081	-601.58044	31.09172	165.78078	-730.86169	64.81458	219.31044	-798.21777	184.43036	181.10899	-769.39911	229.93553	202.62447	-590.39404	206.74564	173.15085	-882.64191	296.16028	144.71594	-554.34973	240.77217	165.44518	-651.84381	290.64703	156.93811	-614.81946	296.93469	158.53418	-528.02930	303.82465	146.59978	-795.75037	141.96167	566.60107	-834.12262	-78.37209	861.26160	-829.65234	-54.63218	473.77512	-764.05634	-24.94422	202.58351	-876.07831	-78.80435	141.53267				-826.64917	-73.87656	744.65167	-810.52411	-41.24809	605.95245	-808.25671	-39.07360	559.87817	-722.98340	154.67094	221.78302	-676.94781	168.50208	161.19319	-604.85675	-70.50621	158.15579	-646.74725	-66.03203	162.44020																-857.10577	283.21918	866.38477				-899.64282	84.27316	1109.23962	
267	5.320	-63.48577	115.87856	1092.99304	-823.43134	249.32524	564.26733	-357.38562	274.84421	1031.05835	-749.73291	212.87973	790.76996	-748.13965	-7.13340	800.27277	-347.35434	-77.22309	1016.26788	-832.94995	277.57370	730.71912	-677.17438	52.61451	162.34409	-752.18298	13.57992	523.16852	-847.89453	257.04166	621.27588				-764.74231	203.11008	535.15741	-843.58588	263.35043	484.03516	-517.74542	-73.11568	143.37331	-550.16266	-20.34171	163.10097	-796.67041	32.61366	172.18327	-796.26044	69.54124	563.12610	-601.71271	31.12337	165.55080	-730.95313	64.92039	219.17967	-798.21198	184.23433	181.05292	-769.32965	229.89769	202.42714	-590.43701	206.69632	173.27330	-882.64099	296.12628	144.72929	-554.16156	240.81670	165.52644	-651.86041	290.50092	156.80498	-614.59607	296.91162	158.56253	-528.05658	304.11688	146.54843	-795.73499	141.84142	566.42236	-833.66602	-78.90341	861.51349	-829.72333	-54.95729	473.81738	-763.90033	-24.94304	202.64069	-875.99792	-78.69180	141.55168				-826.43268	-73.97819	744.49200	-810.52411	-41.24809	605.95245	-808.19794	-39.41946	559.91901	-723.04010	154.50468	221.61461	-676.94781	168.50208	161.19319	-605.07678	-70.58455	158.07149	-646.82593	-65.89877	162.55360																-856.92908	282.47668	866.44403				-899.70587	84.09840	1109.26855	
